<svg width="16" height="16" viewBox="0 0 16 16" fill="none" xmlns="http://www.w3.org/2000/svg">
<path fill-rule="evenodd" clip-rule="evenodd" d="M3.47624 0.237228C6.32933 -0.0790758 9.20864 -0.0790758 12.0617 0.237228C13.7365 0.424228 15.0886 1.74331 15.2847 3.42723C15.6239 6.32114 15.6239 9.2444 15.2847 12.1383C15.0877 13.8222 13.7356 15.1404 12.0617 15.3283C9.20864 15.6446 6.32933 15.6446 3.47624 15.3283C1.80149 15.1404 0.449402 13.8222 0.253236 12.1383C-0.0844119 9.24443 -0.0844119 6.32111 0.253236 3.42723C0.449402 1.74331 1.8024 0.424228 3.47624 0.237228ZM11.9096 1.60306C9.15761 1.29802 6.38036 1.29802 3.6284 1.60306C3.11896 1.65958 2.64344 1.8862 2.27868 2.2463C1.91392 2.60641 1.68121 3.07897 1.61815 3.58764C1.29212 6.3752 1.29212 9.19126 1.61815 11.9788C1.6814 12.4873 1.9142 12.9597 2.27894 13.3196C2.64369 13.6795 3.11909 13.906 3.6284 13.9625C6.35732 14.2668 9.18065 14.2668 11.9096 13.9625C12.4187 13.9058 12.8939 13.6792 13.2585 13.3193C13.623 12.9594 13.8557 12.4872 13.9189 11.9788C14.2449 9.19126 14.2449 6.3752 13.9189 3.58764C13.8555 3.07944 13.6228 2.6074 13.2582 2.24768C12.8937 1.88796 12.4186 1.66152 11.9096 1.60489" fill="#00396B"/>
<path d="M3.19141 7.78199C3.19141 7.59966 3.26384 7.42479 3.39277 7.29586C3.5217 7.16693 3.69657 7.09449 3.87891 7.09449H7.08082V3.89258C7.08082 3.71024 7.15326 3.53537 7.28219 3.40644C7.41112 3.27751 7.58599 3.20508 7.76832 3.20508C7.95066 3.20508 8.12553 3.27751 8.25446 3.40644C8.38339 3.53537 8.45582 3.71024 8.45582 3.89258V7.09449H11.6577C11.8401 7.09449 12.0149 7.16693 12.1439 7.29586C12.2728 7.42479 12.3452 7.59966 12.3452 7.78199C12.3452 7.96433 12.2728 8.1392 12.1439 8.26813C12.0149 8.39706 11.8401 8.46949 11.6577 8.46949H8.45582V11.6714C8.45582 11.8537 8.38339 12.0286 8.25446 12.1575C8.12553 12.2865 7.95066 12.3589 7.76832 12.3589C7.58599 12.3589 7.41112 12.2865 7.28219 12.1575C7.15326 12.0286 7.08082 11.8537 7.08082 11.6714V8.46949H3.87891C3.69657 8.46949 3.5217 8.39706 3.39277 8.26813C3.26384 8.1392 3.19141 7.96433 3.19141 7.78199Z" fill="#00396B"/>
</svg>
