<svg width="90" height="100" viewBox="0 0 90 100" fill="none" xmlns="http://www.w3.org/2000/svg">
<path d="M5 59V41C5 24.0305 5 15.5435 10.2089 10.274C15.4178 5.0045 23.7956 5 40.5556 5H49.4444C66.2044 5 74.5867 5 79.7911 10.274C82.6978 13.2125 83.9822 17.15 84.5467 23M85 41V59C85 75.9695 85 84.4565 79.7911 89.726C74.5822 94.9955 66.2044 95 49.4444 95H40.5556C23.7956 95 15.4133 95 10.2089 89.726C7.30222 86.7875 6.01778 82.85 5.45333 77M27.2222 59H49.4444M27.2222 41H31.6667M62.7778 41H45" stroke="#00396B" stroke-width="10" stroke-linecap="round"/>
</svg>
