<svg xmlns="http://www.w3.org/2000/svg" width="90" height="90" viewBox="0 0 90 90" fill="none">
  <path d="M40.5 0.5H76.5C79.9478 0.5 83.2544 1.86965 85.6924 4.30762C88.1304 6.74559 89.5 10.0522 89.5 13.5V76.5C89.5 79.9478 88.1304 83.2544 85.6924 85.6924C83.2544 88.1304 79.9478 89.5 76.5 89.5H40.5L40.1768 89.4961C36.8461 89.4133 33.6693 88.0541 31.3076 85.6924C28.8696 83.2544 27.5 79.9478 27.5 76.5V13.5C27.5 10.0522 28.8696 6.74559 31.3076 4.30762C33.7456 1.86964 37.0522 0.5 40.5 0.5ZM40.5 8.5C39.1739 8.5 37.9025 9.02716 36.9648 9.96484C36.0272 10.9025 35.5 12.1739 35.5 13.5V76.5C35.5 77.8261 36.0272 79.0975 36.9648 80.0352C37.9025 80.9728 39.1739 81.5 40.5 81.5H76.5C77.8261 81.5 79.0975 80.9728 80.0352 80.0352C80.9728 79.0975 81.5 77.8261 81.5 76.5V13.5C81.5 12.1739 80.9728 10.9025 80.0352 9.96484C79.0975 9.02716 77.8261 8.5 76.5 8.5H40.5Z" fill="#00396B" stroke="#00396B"/>
  <path d="M13.5 27.5H33.25V35.5H13.5C12.2568 35.5 11.0617 35.9634 10.1445 36.7939L9.96484 36.9648C9.02716 37.9025 8.5 39.1739 8.5 40.5V76.5C8.5 77.7432 8.96344 78.9383 9.79395 79.8555L9.96484 80.0352C10.9025 80.9728 12.1739 81.5 13.5 81.5H55.75V89.5H13.5C10.1601 89.5 6.95272 88.2146 4.53906 85.918L4.30762 85.6924C1.86965 83.2544 0.5 79.9478 0.5 76.5V40.5C0.5 37.1601 1.78538 33.9527 4.08203 31.5391L4.30762 31.3076C6.6693 28.9459 9.84609 27.5867 13.1768 27.5039L13.5 27.5Z" fill="#00396B" stroke="#00396B"/>
  <path d="M54 59H63C65.1135 59 67.1458 59.7873 68.7051 61.1992L69.0107 61.4893C70.6048 63.0833 71.5 65.2457 71.5 67.5V80.5H63.5V67H53.5V80.5H45.5V67.5C45.5 65.3865 46.2873 63.3542 47.6992 61.7949L47.9893 61.4893C49.4836 59.9949 51.4774 59.1151 53.5781 59.0107L54 59Z" fill="#00396B" stroke="#00396B"/>
  <path d="M18 54.5C18.9946 54.5 19.9508 54.8707 20.6846 55.5352L20.8281 55.6719C21.5783 56.422 22 57.4391 22 58.5V63C22 63.9946 21.6293 64.9508 20.9648 65.6846L20.8281 65.8281C20.078 66.5783 19.0609 67 18 67C17.0054 67 16.0492 66.6293 15.3154 65.9648L15.1719 65.8281C14.4217 65.078 14 64.0609 14 63V58.5C14 57.5054 14.3707 56.5492 15.0352 55.8154L15.1719 55.6719C15.922 54.9217 16.9391 54.5 18 54.5ZM49.5 36.5C50.5609 36.5 51.578 36.9217 52.3281 37.6719C53.0783 38.422 53.5 39.4391 53.5 40.5V45C53.5 46.0609 53.0783 47.078 52.3281 47.8281C51.578 48.5783 50.5609 49 49.5 49C48.4391 49 47.422 48.5783 46.6719 47.8281C45.9217 47.078 45.5 46.0609 45.5 45V40.5C45.5 39.4391 45.9217 38.422 46.6719 37.6719C47.422 36.9217 48.4391 36.5 49.5 36.5ZM67.5 36.5C68.5609 36.5 69.578 36.9217 70.3281 37.6719C71.0783 38.422 71.5 39.4391 71.5 40.5V45C71.5 46.0609 71.0783 47.078 70.3281 47.8281C69.578 48.5783 68.5609 49 67.5 49C66.4391 49 65.422 48.5783 64.6719 47.8281C63.9217 47.078 63.5 46.0609 63.5 45V40.5C63.5 39.4391 63.9217 38.422 64.6719 37.6719C65.422 36.9217 66.4391 36.5 67.5 36.5ZM49.5 14C50.4946 14 51.4508 14.3707 52.1846 15.0352L52.3281 15.1719C53.0783 15.922 53.5 16.9391 53.5 18V22.5C53.5 23.4946 53.1293 24.4508 52.4648 25.1846L52.3281 25.3281C51.578 26.0783 50.5609 26.5 49.5 26.5C48.5054 26.5 47.5492 26.1293 46.8154 25.4648L46.6719 25.3281C45.9217 24.578 45.5 23.5609 45.5 22.5V18C45.5 17.0054 45.8707 16.0492 46.5352 15.3154L46.6719 15.1719C47.422 14.4217 48.4391 14 49.5 14ZM67.5 14C68.4946 14 69.4508 14.3707 70.1846 15.0352L70.3281 15.1719C71.0783 15.922 71.5 16.9391 71.5 18V22.5C71.5 23.4946 71.1293 24.4508 70.4648 25.1846L70.3281 25.3281C69.578 26.0783 68.5609 26.5 67.5 26.5C66.5054 26.5 65.5492 26.1293 64.8154 25.4648L64.6719 25.3281C63.9217 24.578 63.5 23.5609 63.5 22.5V18C63.5 17.0054 63.8707 16.0492 64.5352 15.3154L64.6719 15.1719C65.422 14.4217 66.4391 14 67.5 14Z" fill="#00396B" stroke="#00396B"/>
</svg> 