<svg xmlns="http://www.w3.org/2000/svg" width="107" height="90" viewBox="0 0 107 90" fill="none">
  <path d="M93.0195 1.89331C94.0196 1.29184 95.2019 1.07513 96.3457 1.27905L96.5732 1.32593C97.7108 1.58592 98.7127 2.2494 99.3955 3.18921L99.5283 3.38159L104.789 11.406C105.41 12.3556 105.677 13.4944 105.54 14.6208C105.403 15.7473 104.873 16.7896 104.043 17.5632L104.01 17.5935L103.992 17.615L103.953 17.6531L103.65 17.9343L103.645 17.9392L102.449 19.0818L102.446 19.0847C96.651 24.7064 91.0093 30.4839 85.5273 36.4109L83.1875 38.9607C71.8689 51.4075 58.4761 67.5962 49.1416 83.4617L48.252 84.9958C45.8837 89.1329 40.2099 90.1144 36.6455 86.8279L36.3076 86.4968L1.84473 50.6892C1.45325 50.2822 1.13656 49.8102 0.90918 49.2947L0.817383 49.071C0.615804 48.5438 0.50926 47.9858 0.500977 47.4226L0.50293 47.1814C0.525834 46.5365 0.678474 45.902 0.951172 45.3171C1.18972 44.8056 1.51626 44.3408 1.91504 43.9431L2.09082 43.7761L12.5068 34.3806L12.5059 34.3796C13.3349 33.6323 14.3987 33.1974 15.5137 33.1472C16.5593 33.1003 17.5898 33.3957 18.4502 33.9851L18.6201 34.1062L36.2051 47.2908L36.5498 47.5496L36.8564 47.2468C62.5826 21.8791 77.8529 11.1795 90.5186 3.41187L93.0195 1.89331ZM93.6123 12.8171C81.7869 20.2119 67.1367 30.8259 42.7803 54.9294L40.3926 57.3044C39.6245 58.0726 38.6207 58.5571 37.5459 58.6824L37.3301 58.7019C36.2464 58.779 35.1706 58.4873 34.2764 57.8777L34.1006 57.7517L16.3398 44.4343L16.0107 44.1873L15.7051 44.4636L12.6182 47.2478L12.2344 47.5935L12.5928 47.9656L40.8477 77.3318L41.3008 77.8025L41.6367 77.2429C51.4219 60.9696 64.8994 44.7571 76.0664 32.4802L76.0674 32.4812C81.9462 26.0235 88.0095 19.7357 94.249 13.6257L94.5713 13.3093L94.2891 12.9558L94.2676 12.9294L93.9902 12.5818L93.6123 12.8171Z" fill="#00396B" stroke="#00396B"/>
</svg> 