<svg width="19" height="18" viewBox="0 0 19 18" fill="none" xmlns="http://www.w3.org/2000/svg">
<path d="M13.2686 11.5H12.4786L12.1986 11.23C13.2125 10.0541 13.7697 8.55271 13.7686 7C13.7686 5.71442 13.3873 4.45772 12.6731 3.3888C11.9589 2.31988 10.9437 1.48676 9.756 0.994786C8.56828 0.502816 7.26135 0.374095 6.00047 0.624899C4.73959 0.875703 3.5814 1.49477 2.67236 2.40381C1.76332 3.31285 1.14426 4.47104 0.893453 5.73192C0.642649 6.99279 0.771371 8.29973 1.26334 9.48744C1.75531 10.6752 2.58843 11.6903 3.65735 12.4046C4.72627 13.1188 5.98298 13.5 7.26856 13.5C8.87856 13.5 10.3586 12.91 11.4986 11.93L11.7686 12.21V13L16.7686 17.99L18.2586 16.5L13.2686 11.5ZM7.26856 11.5C4.77856 11.5 2.76856 9.49 2.76856 7C2.76856 4.51 4.77856 2.5 7.26856 2.5C9.75856 2.5 11.7686 4.51 11.7686 7C11.7686 9.49 9.75856 11.5 7.26856 11.5Z" fill="white"/>
</svg>
