<svg width="16" height="17" viewBox="0 0 16 17" fill="none" xmlns="http://www.w3.org/2000/svg">
<path fill-rule="evenodd" clip-rule="evenodd" d="M3.47624 0.955001C6.32933 0.638698 9.20864 0.638698 12.0617 0.955001C13.7365 1.142 15.0886 2.46108 15.2847 4.145C15.6239 7.03892 15.6239 9.96217 15.2847 12.8561C15.0877 14.54 13.7356 15.8582 12.0617 16.0461C9.20864 16.3624 6.32933 16.3624 3.47624 16.0461C1.80149 15.8582 0.449402 14.54 0.253236 12.8561C-0.0844119 9.96221 -0.0844119 7.03888 0.253236 4.145C0.449402 2.46108 1.8024 1.142 3.47624 0.955001ZM11.9096 2.32083C9.15761 2.01579 6.38036 2.01579 3.6284 2.32083C3.11896 2.37735 2.64344 2.60397 2.27868 2.96407C1.91392 3.32418 1.68121 3.79674 1.61815 4.30542C1.29212 7.09297 1.29212 9.90903 1.61815 12.6966C1.6814 13.2051 1.9142 13.6774 2.27894 14.0374C2.64369 14.3973 3.11909 14.6238 3.6284 14.6803C6.35732 14.9846 9.18065 14.9846 11.9096 14.6803C12.4187 14.6236 12.8939 14.397 13.2585 14.0371C13.623 13.6772 13.8557 13.205 13.9189 12.6966C14.2449 9.90903 14.2449 7.09297 13.9189 4.30542C13.8555 3.79721 13.6228 3.32518 13.2582 2.96545C12.8937 2.60573 12.4186 2.3793 11.9096 2.32267" fill="white"/>
</svg>
