<svg width="10" height="11" viewBox="0 0 10 11" fill="none" xmlns="http://www.w3.org/2000/svg">
<path d="M0.191406 5.49977C0.191406 5.31743 0.263839 5.14256 0.39277 5.01363C0.521702 4.8847 0.69657 4.81227 0.878906 4.81227H4.08082V1.61035C4.08082 1.42802 4.15326 1.25315 4.28219 1.12422C4.41112 0.995284 4.58599 0.922852 4.76832 0.922852C4.95066 0.922852 5.12553 0.995284 5.25446 1.12422C5.38339 1.25315 5.45582 1.42802 5.45582 1.61035V4.81227H8.65774C8.84008 4.81227 9.01495 4.8847 9.14388 5.01363C9.27281 5.14256 9.34524 5.31743 9.34524 5.49977C9.34524 5.6821 9.27281 5.85697 9.14388 5.9859C9.01495 6.11484 8.84008 6.18727 8.65774 6.18727H5.45582V9.38918C5.45582 9.57152 5.38339 9.74639 5.25446 9.87532C5.12553 10.0043 4.95066 10.0767 4.76832 10.0767C4.58599 10.0767 4.41112 10.0043 4.28219 9.87532C4.15326 9.74639 4.08082 9.57152 4.08082 9.38918V6.18727H0.878906C0.69657 6.18727 0.521702 6.11484 0.39277 5.9859C0.263839 5.85697 0.191406 5.6821 0.191406 5.49977Z" fill="white"/>
</svg>
